{
  "accessors": [
    {
      "bufferView": 1,
      "componentType": 5126,
      "count": 714,
      "max": [
        0.12150999903678894,
        0.12278000265359879,
        1.3295999765396118
      ],
      "min": [
        -0.12431000173091888,
        -0.13147999346256256,
        -0.028310000896453857
      ],
      "type": "VEC3"
    },
    {
      "bufferView": 1,
      "byteOffset": 8568,
      "componentType": 5126,
      "count": 714,
      "max": [
        0.99691462516784668,
        0.99406284093856812,
        1
      ],
      "min": [
        -0.99787664413452148,
        -0.99435305595397949,
        -1
      ],
      "type": "VEC3"
    },
    {
      "bufferView": 2,
      "componentType": 5126,
      "count": 714,
      "max": [
        0.99737954139709473,
        1,
        0.99686586856842041,
        1
      ],
      "min": [
        -0.99445211887359619,
        -0.99874955415725708,
        -0.98431932926177979,
        1
      ],
      "type": "VEC4"
    },
    {
      "bufferView": 0,
      "componentType": 5125,
      "count": 1296,
      "max": [
        713
      ],
      "min": [
        0
      ],
      "type": "SCALAR"
    }
  ],
  "asset": {
    "extras": {
      "author": "Inuciian (https://sketchfab.com/Inuciian)",
      "license": "CC-BY-4.0 (http://creativecommons.org/licenses/by/4.0/)",
      "source": "https://sketchfab.com/models/416c249294cc464c8eb8e088f5c60b14",
      "title": "Unlit Torch"
    },
    "generator": "Sketchfab-3.18.7",
    "version": "2.0"
  },
  "bufferViews": [
    {
      "buffer": 0,
      "byteLength": 5184,
      "byteOffset": 0,
      "name": "floatBufferViews",
      "target": 34963
    },
    {
      "buffer": 0,
      "byteLength": 17136,
      "byteOffset": 5184,
      "byteStride": 12,
      "name": "floatBufferViews",
      "target": 34962
    },
    {
      "buffer": 0,
      "byteLength": 11424,
      "byteOffset": 22320,
      "byteStride": 16,
      "name": "floatBufferViews",
      "target": 34962
    }
  ],
  "buffers": [
    {
      "byteLength": 33744,
      "uri": "scene.bin"
    }
  ],
  "materials": [
    {
      "doubleSided": true,
      "emissiveFactor": [
        0,
        0,
        0
      ],
      "name": "Metal_1_mat",
      "pbrMetallicRoughness": {
        "baseColorFactor": [
          0.1027976125,
          0.077427797000000007,
          0.11927107720000001,
          1
        ],
        "metallicFactor": 0,
        "roughnessFactor": 0.33000000000000002
      }
    }
  ],
  "meshes": [
    {
      "name": "torch_0",
      "primitives": [
        {
          "attributes": {
            "NORMAL": 1,
            "POSITION": 0,
            "TANGENT": 2
          },
          "indices": 3,
          "material": 0,
          "mode": 4
        }
      ]
    }
  ],
  "nodes": [
    {
      "children": [
        1
      ],
      "name": "RootNode (gltf orientation matrix)",
      "rotation": [
        -0.70710678118654746,
        -0,
        -0,
        0.70710678118654757
      ]
    },
    {
      "children": [
        2
      ],
      "name": "RootNode (model correction matrix)"
    },
    {
      "children": [
        3
      ],
      "name": "Root"
    },
    {
      "children": [
        4
      ],
      "matrix": [
        1.6260800000000002,
        -0.21131000000000003,
        -0.18356000000000003,
        0,
        0.17634000000000002,
        1.6136999999999999,
        -0.29557000000000005,
        0,
        0.21738000000000002,
        0.27167000000000002,
        1.6129,
        0,
        -3.7658200000000002,
        -6.5749799999999992,
        -0.35100000000000003,
        1
      ],
      "name": "torch"
    },
    {
      "mesh": 0,
      "name": "torch_0"
    }
  ],
  "scene": 0,
  "scenes": [
    {
      "name": "OSG_Scene",
      "nodes": [
        0
      ]
    }
  ]
}

